<svg width="53" height="53" viewBox="0 0 53 53" fill="none" xmlns="http://www.w3.org/2000/svg">
<rect width="53" height="53" rx="26.5" fill="#F5FFFA"/>
<path d="M27.551 22.3402V21.2358H30.7065C32.1013 21.2358 33.4389 20.6817 34.4252 19.6955C35.4115 18.7092 35.9656 17.3715 35.9656 15.9767V13.8731C35.9656 13.5941 35.8547 13.3266 35.6575 13.1293C35.4602 12.9321 35.1927 12.8212 34.9137 12.8212H30.7065C29.5676 12.8151 28.4584 13.1848 27.551 13.8731V10.7176C27.551 10.4386 27.4402 10.1711 27.2429 9.97384C27.0457 9.77659 26.7781 9.66577 26.4992 9.66577C26.2202 9.66577 25.9527 9.77659 25.7554 9.97384C25.5582 10.1711 25.4474 10.4386 25.4474 10.7176V11.7694C24.5399 11.0811 23.4308 10.7114 22.2919 10.7176H18.0846C17.8056 10.7176 17.5381 10.8284 17.3409 11.0257C17.1436 11.2229 17.0328 11.4905 17.0328 11.7694V13.8731C17.0328 15.2679 17.5869 16.6055 18.5731 17.5918C19.5594 18.5781 20.8971 19.1322 22.2919 19.1322H25.4474V22.3402C22.7624 22.6101 20.2839 23.9015 18.5244 25.9474C16.7649 27.9933 15.8591 30.6372 15.9942 33.3323C16.1292 36.0273 17.295 38.5674 19.2502 40.4271C21.2055 42.2868 23.8007 43.3239 26.4992 43.3239C29.1976 43.3239 31.7928 42.2868 33.7481 40.4271C35.7034 38.5674 36.8691 36.0273 37.0042 33.3323C37.1393 30.6372 36.2334 27.9933 34.4739 25.9474C32.7144 23.9015 30.2359 22.6101 27.551 22.3402V22.3402ZM30.7065 14.9775H33.8619V15.9767C33.8619 16.8136 33.5295 17.6162 32.9377 18.208C32.3459 18.7997 31.5433 19.1322 30.7065 19.1322H27.551V18.0803C27.551 17.2435 27.8834 16.4409 28.4752 15.8491C29.067 15.2573 29.8696 14.9249 30.7065 14.9249V14.9775ZM19.1364 13.8731V12.8212H22.2919C23.1288 12.8212 23.9314 13.1537 24.5231 13.7455C25.1149 14.3372 25.4474 15.1398 25.4474 15.9767V17.0285H22.2919C21.455 17.0285 20.6524 16.6961 20.0606 16.1043C19.4689 15.5125 19.1364 14.7099 19.1364 13.8731ZM26.4992 41.2204C24.8349 41.2204 23.2081 40.7269 21.8243 39.8023C20.4405 38.8777 19.362 37.5635 18.7251 36.026C18.0883 34.4884 17.9216 32.7965 18.2463 31.1642C18.571 29.532 19.3724 28.0326 20.5492 26.8558C21.726 25.679 23.2253 24.8776 24.8576 24.553C26.4898 24.2283 28.1817 24.3949 29.7193 25.0318C31.2569 25.6687 32.571 26.7472 33.4956 28.131C34.4202 29.5147 34.9137 31.1416 34.9137 32.8058C34.9137 35.0375 34.0272 37.1778 32.4492 38.7558C30.8711 40.3339 28.7309 41.2204 26.4992 41.2204Z" fill="#1F6E43"/>
<path d="M26.4992 29.6503H28.6029C28.8818 29.6503 29.1494 29.5395 29.3466 29.3423C29.5439 29.145 29.6547 28.8775 29.6547 28.5985C29.6547 28.3196 29.5439 28.052 29.3466 27.8548C29.1494 27.6575 28.8818 27.5467 28.6029 27.5467H27.551C27.551 27.2677 27.4402 27.0002 27.243 26.8029C27.0457 26.6057 26.7782 26.4949 26.4992 26.4949C26.2203 26.4949 25.9527 26.6057 25.7555 26.8029C25.5582 27.0002 25.4474 27.2677 25.4474 27.5467V27.736C24.7518 27.9884 24.167 28.4773 23.7952 29.1172C23.4235 29.7571 23.2885 30.5073 23.4138 31.2366C23.5391 31.9659 23.9168 32.628 24.4808 33.1071C25.0448 33.5862 25.7592 33.8519 26.4992 33.8576C26.7782 33.8576 27.0457 33.9684 27.243 34.1657C27.4402 34.3629 27.551 34.6305 27.551 34.9094C27.551 35.1884 27.4402 35.4559 27.243 35.6532C27.0457 35.8505 26.7782 35.9613 26.4992 35.9613H24.3956C24.1166 35.9613 23.8491 36.0721 23.6518 36.2693C23.4546 36.4666 23.3438 36.7341 23.3438 37.0131C23.3438 37.292 23.4546 37.5596 23.6518 37.7568C23.8491 37.9541 24.1166 38.0649 24.3956 38.0649H25.4474C25.4474 38.3439 25.5582 38.6114 25.7555 38.8087C25.9527 39.0059 26.2203 39.1167 26.4992 39.1167C26.7782 39.1167 27.0457 39.0059 27.243 38.8087C27.4402 38.6114 27.551 38.3439 27.551 38.0649V37.8756C28.2467 37.6232 28.8315 37.1343 29.2032 36.4944C29.5749 35.8545 29.7099 35.1043 29.5846 34.375C29.4593 33.6457 29.0817 32.9836 28.5177 32.5045C27.9537 32.0254 27.2392 31.7597 26.4992 31.754C26.2203 31.754 25.9527 31.6432 25.7555 31.4459C25.5582 31.2487 25.4474 30.9811 25.4474 30.7022C25.4474 30.4232 25.5582 30.1557 25.7555 29.9584C25.9527 29.7612 26.2203 29.6503 26.4992 29.6503V29.6503Z" fill="#1F6E43"/>
<path d="M15.676 17.3335L13.5723 15.2298C13.4746 15.1312 13.3582 15.053 13.23 14.9996C13.1019 14.9462 12.9644 14.9187 12.8255 14.9187C12.6867 14.9187 12.5492 14.9462 12.421 14.9996C12.2929 15.053 12.1765 15.1312 12.0787 15.2298L9.9751 17.3335C9.77704 17.5315 9.66577 17.8002 9.66577 18.0803C9.66577 18.3604 9.77704 18.629 9.9751 18.8271C10.1732 19.0251 10.4418 19.1364 10.7219 19.1364C11.002 19.1364 11.2706 19.0251 11.4687 18.8271L11.7737 18.5115V21.2357C11.7737 21.5147 11.8845 21.7822 12.0818 21.9795C12.279 22.1767 12.5466 22.2876 12.8255 22.2876C13.1045 22.2876 13.372 22.1767 13.5693 21.9795C13.7665 21.7822 13.8774 21.5147 13.8774 21.2357V18.5115L14.1824 18.8271C14.2802 18.9256 14.3965 19.0039 14.5247 19.0573C14.6529 19.1107 14.7903 19.1382 14.9292 19.1382C15.068 19.1382 15.2055 19.1107 15.3337 19.0573C15.4619 19.0039 15.5782 18.9256 15.676 18.8271C15.7746 18.7293 15.8528 18.6129 15.9062 18.4848C15.9596 18.3566 15.9871 18.2191 15.9871 18.0803C15.9871 17.9414 15.9596 17.8039 15.9062 17.6758C15.8528 17.5476 15.7746 17.4313 15.676 17.3335V17.3335Z" fill="#1F6E43"/>
<path d="M43.0234 23.6445L40.9197 21.5409C40.822 21.4423 40.7056 21.364 40.5775 21.3106C40.4493 21.2572 40.3118 21.2297 40.173 21.2297C40.0341 21.2297 39.8966 21.2572 39.7684 21.3106C39.6403 21.364 39.5239 21.4423 39.4262 21.5409L37.3225 23.6445C37.2244 23.7426 37.1467 23.859 37.0936 23.9871C37.0405 24.1153 37.0132 24.2526 37.0132 24.3913C37.0132 24.6714 37.1245 24.94 37.3225 25.1381C37.5206 25.3362 37.7892 25.4474 38.0693 25.4474C38.208 25.4474 38.3453 25.4201 38.4735 25.367C38.6016 25.314 38.718 25.2362 38.8161 25.1381L39.1211 24.8225V27.5468C39.1211 27.8257 39.2319 28.0933 39.4292 28.2905C39.6265 28.4878 39.894 28.5986 40.173 28.5986C40.4519 28.5986 40.7195 28.4878 40.9167 28.2905C41.114 28.0933 41.2248 27.8257 41.2248 27.5468V24.8225L41.5298 25.1381C41.6276 25.2367 41.7439 25.3149 41.8721 25.3683C42.0003 25.4217 42.1377 25.4492 42.2766 25.4492C42.4155 25.4492 42.5529 25.4217 42.6811 25.3683C42.8093 25.3149 42.9256 25.2367 43.0234 25.1381C43.122 25.0403 43.2002 24.924 43.2536 24.7958C43.307 24.6676 43.3345 24.5302 43.3345 24.3913C43.3345 24.2524 43.307 24.115 43.2536 23.9868C43.2002 23.8586 43.122 23.7423 43.0234 23.6445Z" fill="#1F6E43"/>
</svg>
